<svg width="603" height="586" viewBox="0 0 603 586" fill="none" xmlns="http://www.w3.org/2000/svg">
<path d="M0 582.265C40.4861 576.002 80.6324 568.126 120.439 559.701C160.245 551.276 199.712 541.942 238.766 531.87C316.98 511.787 393.563 488.662 468.163 462.6C505.381 449.513 542.024 435.632 578.092 420.956C614.112 406.285 649.501 390.825 683.919 374.335C692.609 370.32 701.104 366.065 709.599 361.844C718.095 357.623 726.59 353.453 734.988 349.06C751.74 340.402 767.793 331.087 783.072 321.16C790.675 316.189 797.917 310.949 804.771 305.46C811.659 300.021 817.879 294.178 823.364 287.992C828.877 281.873 832.974 275.172 835.5 268.14C837.981 261.141 837.611 253.788 834.432 246.932C830.986 240.127 825.314 233.995 817.878 229.035C810.436 223.99 802.165 219.594 793.242 215.943C775.218 208.699 756.205 202.761 736.493 198.218C697.172 188.798 656.516 182.312 615.836 176.203C575.155 170.095 534.208 164.741 493.722 157.792C483.6 156.076 473.528 154.137 463.552 151.992C453.528 149.9 443.716 147.332 434.182 144.305C431.755 143.533 429.473 142.709 427.167 141.8C424.784 140.928 422.58 139.831 420.614 138.54C418.526 137.211 417.047 135.473 416.366 133.547C415.829 131.586 416.186 129.555 417.386 127.747C419.834 124.375 423.257 121.406 427.434 119.03C431.42 116.618 435.637 114.405 440.056 112.407C457.838 104.692 476.456 97.9849 495.737 92.3484C514.863 86.5144 534.281 81.1952 553.82 76.1162C592.923 65.9754 632.487 56.8126 672.22 48.0445C751.712 30.6112 831.883 14.7394 912.516 0L912.71 0.549079C832.174 15.3742 752.052 31.4348 672.633 48.9196C632.923 57.722 593.408 66.9534 554.378 77.1286C534.961 82.2762 515.543 87.5782 496.44 93.4294C477.269 99.0712 458.757 105.772 441.075 113.471C436.73 115.442 432.586 117.627 428.672 120.008C424.717 122.261 421.468 125.072 419.133 128.262C418.108 129.814 417.794 131.553 418.235 133.238C418.842 134.902 420.134 136.401 421.949 137.545C425.873 139.798 430.239 141.636 434.91 143.001C444.373 145.974 454.103 148.502 464.037 150.568C473.964 152.679 484.013 154.549 494.11 156.299C534.524 163.163 575.495 168.447 616.224 174.522C656.953 180.596 697.682 187.013 737.246 196.416C757.14 200.973 776.332 206.94 794.528 214.227C803.656 217.936 812.116 222.413 819.723 227.559C827.524 232.75 833.479 239.17 837.102 246.297C840.463 253.504 840.876 261.237 838.291 268.603C835.722 275.857 831.526 282.774 825.864 289.091C820.293 295.385 813.984 301.337 807.004 306.884C800.108 312.433 792.817 317.731 785.159 322.756C769.819 332.764 753.702 342.158 736.882 350.896C728.556 355.306 719.891 359.476 711.468 363.748C703.046 368.021 694.478 372.328 685.764 376.291C651.322 392.867 615.909 408.413 579.864 423.152C543.82 437.891 506.999 451.858 469.79 465.036C395.148 491.228 318.517 514.485 240.247 534.701C201.136 544.847 161.645 554.199 121.774 562.755C81.8704 571.249 41.6755 579.176 0.970913 585.559L0 582.265Z" fill="url(#paint0_linear_324_3157)"/>
<defs>
<linearGradient id="paint0_linear_324_3157" x1="456.294" y1="585.559" x2="456.294" y2="-1.3727" gradientUnits="userSpaceOnUse">
<stop stop-color="#135195"/>
<stop offset="1"/>
</linearGradient>
</defs>
</svg>
