<svg width="255" height="399" viewBox="0 0 255 399" fill="none" xmlns="http://www.w3.org/2000/svg">
<path style="mix-blend-mode:screen" d="M90.968 61.1498C90.968 61.9942 90.7179 62.8197 90.249 63.5218C89.7802 64.2239 89.1138 64.7711 88.3341 65.0942C87.5545 65.4174 86.6965 65.5019 85.8689 65.3372C85.0412 65.1724 84.281 64.7658 83.6843 64.1687C83.0876 63.5716 82.6812 62.8109 82.5166 61.9827C82.3519 61.1545 82.4364 60.2961 82.7593 59.516C83.0823 58.7358 83.6291 58.069 84.3308 57.5999C85.0325 57.1308 85.8574 56.8804 86.7013 56.8804C87.8329 56.8804 88.9182 57.3302 89.7183 58.1309C90.5185 58.9315 90.968 60.0175 90.968 61.1498Z" fill="url(#paint0_radial_324_1589)"/>
<path d="M87.884 61.4097C87.8791 61.7215 87.7518 62.019 87.5297 62.2378C87.3075 62.4565 87.0084 62.5792 86.6967 62.5791C86.4097 62.543 86.1458 62.4034 85.9545 62.1863C85.7631 61.9693 85.6575 61.6898 85.6575 61.4004C85.6575 61.111 85.7631 60.8315 85.9545 60.6145C86.1458 60.3975 86.4097 60.2578 86.6967 60.2217C87.0115 60.2217 87.3136 60.3468 87.5362 60.5696C87.7589 60.7924 87.884 61.0946 87.884 61.4097Z" fill="#BDDDFF"/>
<path d="M103.153 174.382C103.153 174.691 103.062 174.992 102.891 175.249C102.719 175.505 102.476 175.705 102.191 175.823C101.906 175.941 101.593 175.972 101.291 175.912C100.989 175.851 100.711 175.703 100.493 175.485C100.275 175.267 100.127 174.989 100.067 174.686C100.006 174.384 100.037 174.07 100.155 173.786C100.273 173.501 100.473 173.257 100.729 173.086C100.986 172.914 101.287 172.823 101.595 172.823C102.008 172.823 102.405 172.987 102.697 173.28C102.989 173.572 103.153 173.969 103.153 174.382Z" fill="#909CFF"/>
<path d="M179.046 137.257C179.046 137.67 178.881 138.067 178.589 138.359C178.297 138.651 177.901 138.816 177.487 138.816C177.074 138.816 176.678 138.651 176.385 138.359C176.093 138.067 175.929 137.67 175.929 137.257C175.929 136.843 176.093 136.446 176.385 136.154C176.678 135.862 177.074 135.697 177.487 135.697C177.901 135.697 178.297 135.862 178.589 136.154C178.881 136.446 179.046 136.843 179.046 137.257Z" fill="#909CFF"/>
<path d="M229.987 219.47C229.991 219.78 229.902 220.083 229.733 220.342C229.565 220.601 229.322 220.803 229.038 220.924C228.754 221.045 228.44 221.079 228.136 221.021C227.833 220.962 227.553 220.815 227.334 220.598C227.114 220.381 226.964 220.103 226.902 219.8C226.84 219.497 226.87 219.183 226.987 218.897C227.105 218.611 227.304 218.366 227.561 218.194C227.818 218.022 228.12 217.93 228.429 217.93C228.839 217.93 229.232 218.091 229.524 218.38C229.816 218.668 229.982 219.06 229.987 219.47Z" fill="#909CFF"/>
<path style="mix-blend-mode:screen" d="M234.608 160.553C234.608 161.897 234.21 163.21 233.464 164.327C232.718 165.445 231.658 166.316 230.417 166.83C229.176 167.344 227.811 167.479 226.494 167.216C225.177 166.954 223.967 166.307 223.018 165.357C222.068 164.407 221.422 163.196 221.16 161.878C220.898 160.561 221.032 159.194 221.546 157.953C222.06 156.712 222.93 155.651 224.047 154.904C225.163 154.157 226.476 153.759 227.819 153.759C229.619 153.759 231.346 154.475 232.62 155.749C233.893 157.023 234.608 158.751 234.608 160.553Z" fill="url(#paint1_radial_324_1589)"/>
<path style="mix-blend-mode:screen" d="M199.809 345.326C198.488 345.546 197.131 345.37 195.91 344.819C194.689 344.268 193.659 343.367 192.95 342.23C192.241 341.093 191.885 339.771 191.927 338.432C191.969 337.092 192.406 335.795 193.185 334.705C193.963 333.614 195.047 332.779 196.3 332.305C197.553 331.831 198.918 331.74 200.223 332.042C201.527 332.345 202.713 333.027 203.63 334.004C204.547 334.981 205.154 336.208 205.374 337.53C205.669 339.302 205.248 341.119 204.205 342.581C203.161 344.043 201.58 345.03 199.809 345.326Z" fill="url(#paint2_radial_324_1589)"/>
<path d="M198.486 340.574C198.125 340.631 197.755 340.579 197.423 340.426C197.091 340.274 196.812 340.026 196.62 339.715C196.428 339.403 196.332 339.042 196.345 338.677C196.357 338.311 196.477 337.957 196.69 337.66C196.903 337.362 197.198 337.134 197.54 337.005C197.882 336.875 198.254 336.849 198.611 336.93C198.967 337.011 199.292 337.196 199.543 337.461C199.795 337.727 199.963 338.06 200.026 338.421C200.068 338.663 200.062 338.912 200.007 339.152C199.953 339.393 199.851 339.62 199.707 339.82C199.564 340.021 199.382 340.19 199.173 340.32C198.963 340.449 198.73 340.536 198.486 340.574Z" fill="#BDDDFF"/>
<path style="mix-blend-mode:screen" d="M170.069 269.274C169.255 269.41 168.419 269.301 167.666 268.961C166.914 268.621 166.279 268.066 165.842 267.365C165.406 266.664 165.186 265.849 165.212 265.024C165.238 264.198 165.508 263.399 165.987 262.727C166.467 262.055 167.135 261.54 167.907 261.248C168.679 260.956 169.521 260.899 170.325 261.085C171.129 261.272 171.86 261.692 172.425 262.294C172.991 262.896 173.365 263.652 173.501 264.467C173.591 265.008 173.574 265.561 173.45 266.096C173.327 266.631 173.099 267.135 172.78 267.582C172.462 268.028 172.058 268.408 171.593 268.698C171.128 268.988 170.61 269.184 170.069 269.274Z" fill="url(#paint3_radial_324_1589)"/>
<path d="M169.252 266.342C169.102 266.368 168.948 266.365 168.799 266.332C168.651 266.298 168.51 266.236 168.386 266.148C168.262 266.06 168.156 265.948 168.076 265.819C167.995 265.689 167.941 265.545 167.916 265.395C167.873 265.091 167.949 264.781 168.129 264.532C168.309 264.283 168.578 264.113 168.88 264.058C169.029 264.032 169.182 264.036 169.329 264.069C169.477 264.103 169.616 264.165 169.739 264.254C169.862 264.342 169.965 264.454 170.044 264.583C170.123 264.712 170.175 264.856 170.198 265.005C170.224 265.155 170.221 265.309 170.187 265.458C170.154 265.606 170.092 265.747 170.004 265.871C169.916 265.996 169.804 266.101 169.675 266.182C169.546 266.263 169.402 266.317 169.252 266.342Z" fill="#BDDDFF"/>
<path style="mix-blend-mode:screen" d="M219.602 280.783C218.788 280.915 217.952 280.802 217.202 280.46C216.452 280.117 215.82 279.56 215.386 278.858C214.952 278.156 214.735 277.341 214.763 276.517C214.791 275.692 215.063 274.894 215.544 274.223C216.025 273.553 216.694 273.04 217.466 272.75C218.238 272.46 219.079 272.405 219.882 272.592C220.686 272.78 221.415 273.201 221.98 273.803C222.544 274.405 222.917 275.161 223.052 275.975C223.142 276.517 223.124 277.072 223 277.608C222.875 278.144 222.646 278.649 222.325 279.096C222.004 279.543 221.599 279.922 221.131 280.211C220.664 280.501 220.144 280.695 219.602 280.783Z" fill="url(#paint4_radial_324_1589)"/>
<path d="M218.806 277.868C218.501 277.916 218.189 277.842 217.939 277.661C217.689 277.48 217.52 277.208 217.47 276.903C217.444 276.754 217.447 276.601 217.481 276.454C217.514 276.306 217.577 276.167 217.665 276.044C217.753 275.921 217.865 275.817 217.994 275.739C218.123 275.66 218.267 275.608 218.416 275.585C218.566 275.558 218.72 275.562 218.868 275.595C219.017 275.629 219.157 275.691 219.282 275.779C219.406 275.867 219.512 275.979 219.592 276.108C219.673 276.237 219.727 276.381 219.752 276.532C219.801 276.834 219.729 277.144 219.552 277.393C219.375 277.643 219.107 277.814 218.806 277.868Z" fill="#BDDDFF"/>
<path style="mix-blend-mode:screen" d="M248.336 308.85C247.517 308.99 246.675 308.883 245.917 308.544C245.159 308.204 244.518 307.647 244.077 306.943C243.636 306.238 243.414 305.419 243.439 304.588C243.464 303.757 243.735 302.952 244.218 302.276C244.701 301.6 245.374 301.082 246.151 300.789C246.928 300.496 247.775 300.44 248.584 300.629C249.393 300.819 250.127 301.244 250.694 301.852C251.261 302.459 251.635 303.221 251.768 304.042C251.94 305.134 251.677 306.249 251.035 307.148C250.393 308.048 249.424 308.659 248.336 308.85Z" fill="url(#paint5_radial_324_1589)"/>
<path d="M247.572 305.917C247.27 305.966 246.96 305.894 246.711 305.717C246.461 305.54 246.291 305.272 246.236 304.971C246.199 304.746 246.23 304.517 246.323 304.31C246.417 304.103 246.569 303.928 246.762 303.808C246.954 303.688 247.178 303.627 247.404 303.634C247.631 303.64 247.851 303.714 248.036 303.845C248.221 303.976 248.363 304.159 248.445 304.371C248.526 304.583 248.543 304.814 248.493 305.036C248.444 305.257 248.33 305.459 248.166 305.616C248.002 305.773 247.795 305.878 247.572 305.917Z" fill="#BDDDFF"/>
<path style="mix-blend-mode:screen" d="M198.993 260.643C198.179 260.775 197.344 260.662 196.594 260.32C195.843 259.977 195.211 259.42 194.777 258.718C194.343 258.016 194.126 257.202 194.155 256.377C194.183 255.552 194.455 254.754 194.936 254.084C195.417 253.413 196.086 252.901 196.858 252.61C197.63 252.32 198.471 252.265 199.274 252.452C200.077 252.64 200.807 253.061 201.371 253.663C201.935 254.265 202.308 255.021 202.444 255.835C202.621 256.93 202.357 258.051 201.71 258.952C201.064 259.853 200.087 260.461 198.993 260.643Z" fill="url(#paint6_radial_324_1589)"/>
<path d="M198.247 257.71C198.098 257.737 197.946 257.733 197.798 257.699C197.651 257.666 197.512 257.603 197.389 257.515C197.266 257.427 197.162 257.315 197.083 257.186C197.005 257.057 196.953 256.913 196.93 256.763C196.904 256.614 196.909 256.46 196.942 256.312C196.976 256.163 197.039 256.023 197.127 255.899C197.214 255.775 197.326 255.669 197.454 255.588C197.583 255.507 197.726 255.453 197.876 255.427C198.026 255.401 198.179 255.405 198.328 255.439C198.476 255.473 198.616 255.536 198.74 255.623C198.864 255.711 198.969 255.823 199.05 255.952C199.131 256.08 199.186 256.224 199.212 256.374C199.255 256.678 199.179 256.987 198.999 257.237C198.819 257.486 198.55 257.656 198.247 257.71Z" fill="#BDDDFF"/>
<path style="mix-blend-mode:screen" d="M171.128 349.372C170.315 349.503 169.481 349.391 168.732 349.049C167.982 348.706 167.351 348.15 166.917 347.449C166.483 346.748 166.266 345.935 166.293 345.111C166.32 344.287 166.59 343.489 167.07 342.819C167.549 342.148 168.216 341.635 168.987 341.343C169.757 341.051 170.597 340.994 171.4 341.178C172.202 341.363 172.933 341.781 173.499 342.381C174.064 342.98 174.44 343.733 174.579 344.546C174.669 345.09 174.652 345.646 174.527 346.182C174.402 346.719 174.173 347.226 173.853 347.674C173.533 348.123 173.127 348.503 172.66 348.795C172.192 349.086 171.672 349.282 171.128 349.372Z" fill="url(#paint7_radial_324_1589)"/>
<path d="M170.311 346.44C170.161 346.464 170.008 346.457 169.86 346.422C169.713 346.386 169.574 346.321 169.452 346.232C169.329 346.142 169.226 346.029 169.147 345.899C169.069 345.769 169.016 345.625 168.994 345.475C168.967 345.326 168.971 345.173 169.005 345.025C169.038 344.878 169.101 344.739 169.189 344.616C169.277 344.493 169.389 344.389 169.518 344.31C169.647 344.231 169.79 344.179 169.94 344.157C170.09 344.13 170.244 344.133 170.392 344.167C170.541 344.2 170.681 344.263 170.805 344.351C170.93 344.439 171.035 344.551 171.116 344.68C171.197 344.809 171.251 344.953 171.276 345.103C171.319 345.408 171.243 345.717 171.063 345.966C170.883 346.215 170.613 346.385 170.311 346.44Z" fill="#BDDDFF"/>
<path style="mix-blend-mode:screen" d="M196.391 319.282C194.118 319.666 191.782 319.367 189.679 318.421C187.575 317.476 185.8 315.928 184.577 313.972C183.354 312.016 182.738 309.742 182.807 307.436C182.877 305.13 183.629 302.896 184.968 301.018C186.306 299.14 188.172 297.701 190.328 296.885C192.485 296.068 194.835 295.91 197.081 296.431C199.327 296.951 201.368 298.127 202.946 299.809C204.524 301.491 205.568 303.604 205.945 305.88C206.198 307.388 206.151 308.93 205.807 310.42C205.463 311.91 204.83 313.317 203.943 314.561C203.056 315.806 201.932 316.864 200.636 317.674C199.341 318.484 197.898 319.03 196.391 319.282Z" fill="url(#paint8_radial_324_1589)"/>
<path d="M194.127 311.133C193.497 311.239 192.85 311.155 192.268 310.892C191.686 310.629 191.195 310.199 190.856 309.657C190.518 309.115 190.349 308.485 190.369 307.846C190.389 307.207 190.598 306.589 190.969 306.069C191.341 305.549 191.858 305.151 192.456 304.926C193.053 304.7 193.704 304.657 194.326 304.802C194.948 304.946 195.513 305.272 195.95 305.739C196.387 306.205 196.676 306.79 196.78 307.421C196.914 308.264 196.711 309.127 196.215 309.822C195.718 310.517 194.968 310.988 194.127 311.133Z" fill="#BDDDFF"/>
<path style="mix-blend-mode:screen" d="M156.338 322.679C154.065 323.06 151.73 322.757 149.629 321.809C147.528 320.861 145.755 319.31 144.534 317.354C143.314 315.397 142.701 313.122 142.773 310.817C142.845 308.512 143.599 306.28 144.939 304.403C146.279 302.527 148.146 301.09 150.302 300.276C152.458 299.461 154.808 299.305 157.053 299.826C159.298 300.348 161.338 301.525 162.915 303.207C164.492 304.889 165.534 307.002 165.911 309.277C166.163 310.786 166.115 312.33 165.771 313.821C165.426 315.311 164.791 316.719 163.902 317.964C163.013 319.209 161.887 320.266 160.589 321.075C159.292 321.884 157.847 322.429 156.338 322.679Z" fill="url(#paint9_radial_324_1589)"/>
<path d="M154.056 314.512C153.431 314.613 152.79 314.526 152.214 314.263C151.637 314 151.152 313.572 150.818 313.033C150.484 312.495 150.318 311.869 150.338 311.236C150.359 310.602 150.567 309.989 150.935 309.474C151.304 308.958 151.816 308.563 152.409 308.339C153.001 308.114 153.646 308.07 154.264 308.211C154.881 308.353 155.443 308.675 155.878 309.135C156.313 309.596 156.602 310.175 156.709 310.799C156.783 311.218 156.773 311.647 156.68 312.062C156.586 312.476 156.41 312.868 156.163 313.214C155.916 313.56 155.602 313.853 155.241 314.075C154.879 314.298 154.476 314.447 154.056 314.512Z" fill="#BDDDFF"/>
<path style="mix-blend-mode:screen" d="M62.844 153.109C64.2681 153.109 65.4226 151.954 65.4226 150.529C65.4226 149.104 64.2681 147.949 62.844 147.949C61.4199 147.949 60.2654 149.104 60.2654 150.529C60.2654 151.954 61.4199 153.109 62.844 153.109Z" fill="url(#paint10_radial_324_1589)"/>
<path d="M62.1201 150.715C62.1164 150.859 62.1557 151.001 62.2329 151.122C62.3101 151.244 62.4218 151.339 62.5537 151.397C62.6855 151.455 62.8315 151.472 62.973 151.446C63.1146 151.42 63.2452 151.352 63.3483 151.252C63.4513 151.152 63.5221 151.023 63.5515 150.882C63.581 150.741 63.5678 150.594 63.5136 150.461C63.4594 150.328 63.3667 150.213 63.2474 150.133C63.128 150.053 62.9875 150.01 62.8436 150.01C62.6549 150.009 62.4737 150.083 62.3385 150.215C62.2034 150.347 62.1249 150.526 62.1201 150.715Z" fill="#7EA0FF"/>
<path style="mix-blend-mode:screen" d="M185.521 241.95C189.496 241.95 192.718 238.726 192.718 234.748C192.718 230.77 189.496 227.546 185.521 227.546C181.545 227.546 178.323 230.77 178.323 234.748C178.323 238.726 181.545 241.95 185.521 241.95Z" fill="url(#paint11_radial_324_1589)"/>
<path d="M185.52 237.291C186.616 237.291 187.505 236.402 187.505 235.305C187.505 234.208 186.616 233.318 185.52 233.318C184.424 233.318 183.535 234.208 183.535 235.305C183.535 236.402 184.424 237.291 185.52 237.291Z" fill="#7EA0FF"/>
<path style="mix-blend-mode:screen" d="M53.1281 34.2712C55.9578 21.0068 47.5057 7.95852 34.2496 5.12699C20.9936 2.29546 7.95349 10.7529 5.12374 24.0173C2.29398 37.2817 10.7461 50.3301 24.0022 53.1616C37.2582 55.9931 50.2983 47.5356 53.1281 34.2712Z" fill="url(#paint12_radial_324_1589)"/>
<path style="mix-blend-mode:screen" d="M78.4621 380.947C111.729 380.947 138.697 353.962 138.697 320.674C138.697 287.387 111.729 260.401 78.4621 260.401C45.1952 260.401 18.2271 287.387 18.2271 320.674C18.2271 353.962 45.1952 380.947 78.4621 380.947Z" fill="url(#paint13_radial_324_1589)"/>
<path style="mix-blend-mode:screen" d="M78.4654 348.481C93.8131 348.481 106.255 336.031 106.255 320.674C106.255 305.317 93.8131 292.867 78.4654 292.867C63.1177 292.867 50.676 305.317 50.676 320.674C50.676 336.031 63.1177 348.481 78.4654 348.481Z" fill="url(#paint14_radial_324_1589)"/>
<g style="mix-blend-mode:screen">
<path d="M83.8996 320.656C83.9033 321.732 83.5877 322.786 82.9927 323.682C82.3976 324.579 81.55 325.279 80.5572 325.694C79.5643 326.108 78.4708 326.219 77.4153 326.011C76.3597 325.803 75.3894 325.287 74.6274 324.527C73.8654 323.767 73.3459 322.798 73.1346 321.742C72.9234 320.687 73.0299 319.592 73.4408 318.597C73.8516 317.602 74.5483 316.752 75.4425 316.153C76.3368 315.555 77.3884 315.235 78.4642 315.235C79.1771 315.233 79.8836 315.371 80.5429 315.643C81.2023 315.914 81.8015 316.313 82.3065 316.816C82.8115 317.32 83.2122 317.918 83.4855 318.577C83.7589 319.236 83.8996 319.942 83.8996 320.656Z" fill="white"/>
</g>
<path d="M108.367 375.991C108.367 375.991 94.2872 299.197 100.947 274.435L153.502 283.196L169.233 282.992L168.213 295.151L228.485 301.425C228.485 301.425 228.986 323.31 218.431 338.105L197.876 363.721C197.876 363.721 185.317 381.634 173.092 384.474C173.092 384.382 149.606 396.633 108.367 375.991Z" fill="#5B254E"/>
<path d="M100.856 274.435C100.856 274.435 100.559 300.924 124.62 327.338C124.62 327.338 162.037 331.738 194.724 322.605V312.321L205.576 317.723C214.002 313.542 221.705 308.04 228.394 301.425C206.691 295.21 184.415 291.205 161.907 289.471L169.142 283.029C169.142 283.029 142.095 274.342 100.856 274.435Z" fill="#985965"/>
<path d="M124.614 327.338C124.614 327.338 109.532 358.468 108.364 375.991C108.364 375.991 96.6207 323.459 100.943 274.435C100.85 274.435 112.148 310.409 124.614 327.338Z" fill="#461642"/>
<path d="M194.721 312.321L197.875 324.016L183.127 369.735C183.127 369.735 203.088 334.763 205.573 317.76L194.721 312.321Z" fill="#461642"/>
<g style="mix-blend-mode:soft-light" opacity="0.2">
<path d="M101.319 275.827C101.319 275.827 114.695 306.901 125.436 316.498C136.177 326.095 170.459 317.668 173.371 315.552C176.284 313.435 175.802 308.294 191.514 305.955C207.227 303.616 208.785 299.792 205.539 298.418C202.292 297.045 178.64 297.731 165.97 294.464C153.299 291.197 161.777 286 154.375 283.197C146.973 280.394 112.524 273.618 101.319 275.827Z" fill="#D2CCBF"/>
</g>
<path d="M104.346 284.626C104.346 284.626 120.207 315.737 128.11 319.895C136.013 324.053 175.582 327.821 194.727 322.605C171.919 328.913 148.07 330.523 124.622 327.339C124.622 327.339 111.321 305.88 104.346 284.626Z" fill="#B06979"/>
<path d="M121.76 322.494L122.799 331.237L129.459 327.784L121.76 322.494Z" fill="#D27F7C"/>
<path d="M202.161 316.015L204.016 324.721L209.358 315.44C209.358 315.44 203.979 314.846 202.161 316.015Z" fill="#B06979"/>
<path d="M83.0082 163.913L50.7295 167.997L42.6784 171.709L38.0592 172.897C38.0592 172.897 32.4939 180.471 32.4939 195.544C32.4939 195.544 44.4593 211.6 54.4026 215.703L72.7495 219.155L83.0082 163.913Z" fill="#5B254E"/>
<path d="M72.7097 219.137L47.8513 193.984L54.8265 175.069H62.5067L82.9128 163.931C82.9128 163.931 85.8067 183.626 82.9128 199.572C83.0055 199.553 78.3863 214.217 72.7097 219.137Z" fill="#985965"/>
<path d="M47.8563 193.984C47.8563 193.984 38.1912 192.128 32.459 195.525C32.459 195.525 36.9669 207.999 54.3677 215.684C54.3677 215.684 67.5946 220.213 72.7147 219.137C72.7147 219.137 54.6274 203.953 47.8563 193.984Z" fill="#461642"/>
<path d="M62.51 175.088H73.1768L68.5577 171.783L62.51 175.088Z" fill="#6E3E62"/>
<path d="M54.8265 175.069C54.8265 175.069 51.9511 184.944 54.8265 192.462C57.7019 199.98 72.7097 219.137 72.7097 219.137C72.7097 219.137 52.3036 202.653 47.8513 193.984L54.8265 175.069Z" fill="#B06979"/>
<path d="M44.8855 193.464L49.3191 190.03V196.36L44.8855 193.464Z" fill="#D27F7C"/>
<path d="M38.0576 172.879L54.8277 175.088H62.5078L83.0067 163.913L50.7279 167.997L43.2704 171.783L38.0576 172.879Z" fill="#6E3E62"/>
<path d="M103.637 181.231C103.637 181.231 105.752 188.564 111.392 191.496H114.378L116.234 194.077C119.99 194.73 123.839 194.616 127.55 193.743C127.55 193.743 138.235 189.436 141.055 179.338L103.637 181.231Z" fill="#5B254E"/>
<path d="M141.145 179.357C141.145 179.357 129.884 184.053 103.709 181.213C105.79 179.538 107.991 178.018 110.295 176.665L110.517 176.535C113.402 174.715 116.651 173.549 120.034 173.12C125.293 174.007 130.487 175.247 135.58 176.832C137.52 177.47 139.386 178.317 141.145 179.357Z" fill="#985965"/>
<path d="M141.145 179.357C141.145 179.357 129.884 184.053 103.709 181.213C105.79 179.538 107.991 178.018 110.295 176.665C109.608 177.111 107.493 178.521 108.44 179.617C109.386 180.712 127.566 181.77 133.65 180.155C139.216 178.633 136.173 177.129 135.691 176.906C137.59 177.528 139.418 178.349 141.145 179.357Z" fill="#B06979"/>
<path d="M103.637 181.232L111.28 181.882L114.378 191.497H111.392C109.413 190.478 107.688 189.026 106.346 187.249C105.003 185.472 104.078 183.415 103.637 181.232Z" fill="#461642"/>
<path d="M227.931 130.203C229.582 133.057 231.541 135.721 233.774 138.147C237.151 141.674 244.719 138.983 244.719 138.983C244.719 138.983 242.4 136.997 242.53 131.929L227.931 130.203Z" fill="#5B254E"/>
<path d="M227.931 130.203C227.931 130.203 237.93 130.203 242.53 131.929C242.53 131.929 241.287 132.616 241.603 133.785C242.421 135.641 243.468 137.387 244.719 138.983C244.719 138.983 239.506 139.837 227.931 130.203Z" fill="#985965"/>
<path d="M28.7673 251.194C28.7673 251.194 25.6136 250.266 17.1729 254.499C15.0112 257.107 13.8299 260.391 13.8337 263.78L15.9485 267.975C15.9485 267.975 14.7056 277.126 16.6349 282.658C16.6349 282.658 24.0553 289.304 32.9783 288.041C41.9013 286.779 53.5514 270.667 53.5514 270.667L28.7673 251.194Z" fill="#5B254E"/>
<path d="M53.5511 270.667C53.1676 271.435 52.7273 272.173 52.2339 272.876C49.8594 276.31 44.3683 281.99 35.538 278.63C32.219 277.573 29.3617 275.411 27.4413 272.503C25.5209 269.595 24.6532 266.117 24.9825 262.648C24.9825 260.531 22.1814 255.222 22.1814 255.222C23.0533 252.271 28.062 251.157 28.6927 251.046C37.5303 254.459 45.4783 259.835 51.9372 266.768L53.5511 270.667Z" fill="#985965"/>
<path d="M16.6318 282.714C20.991 283.864 25.5738 283.864 29.933 282.714C36.1476 280.69 37.1864 279.261 37.1864 279.261C37.1864 279.261 45.5158 282.083 53.6041 270.667C53.6041 270.667 49.8938 281.062 34.2739 288.264C34.2739 288.264 26.8905 291.884 16.6318 282.714Z" fill="#461642"/>
<path d="M53.5511 270.741L52.2339 272.95C49.8594 276.384 44.3683 282.064 35.538 278.704C32.219 277.647 29.3617 275.485 27.4413 272.577C25.5209 269.669 24.6532 266.191 24.9825 262.722C24.9825 260.606 22.1814 255.297 22.1814 255.297C23.0533 252.345 28.062 251.231 28.6927 251.12C28.1918 251.287 24.7414 252.587 23.9994 254.833C23.2573 257.079 24.9825 258.694 26.3738 263.446C27.7652 268.198 32.607 277.405 40.4541 277.349C47.8559 277.423 52.9389 271.483 53.5511 270.741Z" fill="#B06979"/>
<defs>
<radialGradient id="paint0_radial_324_1589" cx="0" cy="0" r="1" gradientUnits="userSpaceOnUse" gradientTransform="translate(86.7013 61.0755) scale(4.26672 4.26942)">
<stop stop-color="#2E00A7"/>
<stop offset="0.09" stop-color="#280091"/>
<stop offset="0.31" stop-color="#1A005E"/>
<stop offset="0.52" stop-color="#0F0035"/>
<stop offset="0.71" stop-color="#070018"/>
<stop offset="0.88" stop-color="#020006"/>
<stop offset="1"/>
</radialGradient>
<radialGradient id="paint1_radial_324_1589" cx="0" cy="0" r="1" gradientUnits="userSpaceOnUse" gradientTransform="translate(227.819 160.553) scale(6.78963 6.79394)">
<stop stop-color="#2E00A7"/>
<stop offset="0.09" stop-color="#280091"/>
<stop offset="0.31" stop-color="#1A005E"/>
<stop offset="0.52" stop-color="#0F0035"/>
<stop offset="0.71" stop-color="#070018"/>
<stop offset="0.88" stop-color="#020006"/>
<stop offset="1"/>
</radialGradient>
<radialGradient id="paint2_radial_324_1589" cx="0" cy="0" r="1" gradientUnits="userSpaceOnUse" gradientTransform="translate(198.742 338.594) rotate(80.5658) scale(6.79383 6.78981)">
<stop stop-color="#2E00A7"/>
<stop offset="0.09" stop-color="#280091"/>
<stop offset="0.31" stop-color="#1A005E"/>
<stop offset="0.52" stop-color="#0F0035"/>
<stop offset="0.71" stop-color="#070018"/>
<stop offset="0.88" stop-color="#020006"/>
<stop offset="1"/>
</radialGradient>
<radialGradient id="paint3_radial_324_1589" cx="0" cy="0" r="1" gradientUnits="userSpaceOnUse" gradientTransform="translate(169.432 265.095) rotate(80.5659) scale(4.17653 4.17403)">
<stop stop-color="#2E00A7"/>
<stop offset="0.09" stop-color="#280091"/>
<stop offset="0.31" stop-color="#1A005E"/>
<stop offset="0.52" stop-color="#0F0035"/>
<stop offset="0.71" stop-color="#070018"/>
<stop offset="0.88" stop-color="#020006"/>
<stop offset="1"/>
</radialGradient>
<radialGradient id="paint4_radial_324_1589" cx="0" cy="0" r="1" gradientUnits="userSpaceOnUse" gradientTransform="translate(218.964 276.612) rotate(80.5659) scale(4.17653 4.17402)">
<stop stop-color="#2E00A7"/>
<stop offset="0.09" stop-color="#280091"/>
<stop offset="0.31" stop-color="#1A005E"/>
<stop offset="0.52" stop-color="#0F0035"/>
<stop offset="0.71" stop-color="#070018"/>
<stop offset="0.88" stop-color="#020006"/>
<stop offset="1"/>
</radialGradient>
<radialGradient id="paint5_radial_324_1589" cx="0" cy="0" r="1" gradientUnits="userSpaceOnUse" gradientTransform="translate(247.732 304.663) rotate(80.5658) scale(4.17654 4.17405)">
<stop stop-color="#2E00A7"/>
<stop offset="0.09" stop-color="#280091"/>
<stop offset="0.31" stop-color="#1A005E"/>
<stop offset="0.52" stop-color="#0F0035"/>
<stop offset="0.71" stop-color="#070018"/>
<stop offset="0.88" stop-color="#020006"/>
<stop offset="1"/>
</radialGradient>
<radialGradient id="paint6_radial_324_1589" cx="0" cy="0" r="1" gradientUnits="userSpaceOnUse" gradientTransform="translate(198.354 256.464) rotate(80.5658) scale(4.17653 4.17407)">
<stop stop-color="#2E00A7"/>
<stop offset="0.09" stop-color="#280091"/>
<stop offset="0.31" stop-color="#1A005E"/>
<stop offset="0.52" stop-color="#0F0035"/>
<stop offset="0.71" stop-color="#070018"/>
<stop offset="0.88" stop-color="#020006"/>
<stop offset="1"/>
</radialGradient>
<radialGradient id="paint7_radial_324_1589" cx="0" cy="0" r="1" gradientUnits="userSpaceOnUse" gradientTransform="translate(170.501 345.193) rotate(80.5658) scale(4.17652 4.17404)">
<stop stop-color="#2E00A7"/>
<stop offset="0.09" stop-color="#280091"/>
<stop offset="0.31" stop-color="#1A005E"/>
<stop offset="0.52" stop-color="#0F0035"/>
<stop offset="0.71" stop-color="#070018"/>
<stop offset="0.88" stop-color="#020006"/>
<stop offset="1"/>
</radialGradient>
<radialGradient id="paint8_radial_324_1589" cx="0" cy="0" r="1" gradientUnits="userSpaceOnUse" gradientTransform="translate(194.535 307.755) rotate(80.5658) scale(11.6386 11.6317)">
<stop stop-color="#2E00A7"/>
<stop offset="0.09" stop-color="#280091"/>
<stop offset="0.31" stop-color="#1A005E"/>
<stop offset="0.52" stop-color="#0F0035"/>
<stop offset="0.71" stop-color="#070018"/>
<stop offset="0.88" stop-color="#020006"/>
<stop offset="1"/>
</radialGradient>
<radialGradient id="paint9_radial_324_1589" cx="0" cy="0" r="1" gradientUnits="userSpaceOnUse" gradientTransform="translate(154.477 311.145) rotate(80.5659) scale(11.6386 11.6317)">
<stop stop-color="#2E00A7"/>
<stop offset="0.09" stop-color="#280091"/>
<stop offset="0.31" stop-color="#1A005E"/>
<stop offset="0.52" stop-color="#0F0035"/>
<stop offset="0.71" stop-color="#070018"/>
<stop offset="0.88" stop-color="#020006"/>
<stop offset="1"/>
</radialGradient>
<radialGradient id="paint10_radial_324_1589" cx="0" cy="0" r="1" gradientUnits="userSpaceOnUse" gradientTransform="translate(62.844 150.529) rotate(180) scale(2.57862 2.58021)">
<stop stop-color="#2E00A7"/>
<stop offset="0.09" stop-color="#280091"/>
<stop offset="0.31" stop-color="#1A005E"/>
<stop offset="0.52" stop-color="#0F0035"/>
<stop offset="0.71" stop-color="#070018"/>
<stop offset="0.88" stop-color="#020006"/>
<stop offset="1"/>
</radialGradient>
<radialGradient id="paint11_radial_324_1589" cx="0" cy="0" r="1" gradientUnits="userSpaceOnUse" gradientTransform="translate(185.539 234.748) rotate(180) scale(7.1978 7.20233)">
<stop stop-color="#2E00A7"/>
<stop offset="0.09" stop-color="#280091"/>
<stop offset="0.31" stop-color="#1A005E"/>
<stop offset="0.52" stop-color="#0F0035"/>
<stop offset="0.71" stop-color="#070018"/>
<stop offset="0.88" stop-color="#020006"/>
<stop offset="1"/>
</radialGradient>
<radialGradient id="paint12_radial_324_1589" cx="0" cy="0" r="1" gradientUnits="userSpaceOnUse" gradientTransform="translate(29.1285 29.1317) scale(24.543 24.5584)">
<stop stop-color="#2E00A7"/>
<stop offset="0.09" stop-color="#280091"/>
<stop offset="0.31" stop-color="#1A005E"/>
<stop offset="0.52" stop-color="#0F0035"/>
<stop offset="0.71" stop-color="#070018"/>
<stop offset="0.88" stop-color="#020006"/>
<stop offset="1"/>
</radialGradient>
<radialGradient id="paint13_radial_324_1589" cx="0" cy="0" r="1" gradientUnits="userSpaceOnUse" gradientTransform="translate(78.4622 320.674) scale(60.2351 60.273)">
<stop stop-color="#2E00A7"/>
<stop offset="0.09" stop-color="#280091"/>
<stop offset="0.31" stop-color="#1A005E"/>
<stop offset="0.52" stop-color="#0F0035"/>
<stop offset="0.71" stop-color="#070018"/>
<stop offset="0.88" stop-color="#020006"/>
<stop offset="1"/>
</radialGradient>
<radialGradient id="paint14_radial_324_1589" cx="0" cy="0" r="1" gradientUnits="userSpaceOnUse" gradientTransform="translate(78.4654 320.674) scale(27.7894 27.8069)">
<stop stop-color="#8647A7"/>
<stop offset="0.09" stop-color="#743E91"/>
<stop offset="0.31" stop-color="#4B285E"/>
<stop offset="0.52" stop-color="#2B1735"/>
<stop offset="0.71" stop-color="#130A18"/>
<stop offset="0.88" stop-color="#050306"/>
<stop offset="1"/>
</radialGradient>
</defs>
</svg>
